<?xml version="1.0" encoding="UTF-8" standalone="no"?>
<!DOCTYPE svg PUBLIC "-//W3C//DTD SVG 1.1//EN"
 "http://www.w3.org/Graphics/SVG/1.1/DTD/svg11.dtd">
<!-- Generated by graphviz version 3.0.0 (20220226.1711)
 -->
<!-- Title: G Pages: 1 -->
<svg width="1097pt" height="552pt"
 viewBox="0.00 0.00 1097.00 552.00" xmlns="http://www.w3.org/2000/svg" xmlns:xlink="http://www.w3.org/1999/xlink">
<g id="graph0" class="graph" transform="scale(1 1) rotate(0) translate(4 548)">
<title>G</title>
<polygon fill="white" stroke="transparent" points="-4,4 -4,-548 1093,-548 1093,4 -4,4"/>
<!-- s5 -->
<g id="node1" class="node">
<title>s5</title>
<ellipse fill="none" stroke="black" cx="89" cy="-18" rx="28.7" ry="18"/>
<text text-anchor="middle" x="89" y="-14.3" font-family="Times New Roman,serif" font-size="14.00">END</text>
</g>
<!-- s6 -->
<g id="node2" class="node">
<title>s6</title>
<ellipse fill="none" stroke="black" cx="745" cy="-18" rx="28.7" ry="18"/>
<text text-anchor="middle" x="745" y="-14.3" font-family="Times New Roman,serif" font-size="14.00">END</text>
</g>
<!-- start -->
<g id="node3" class="node">
<title>start</title>
<ellipse fill="none" stroke="black" cx="505" cy="-526" rx="27" ry="18"/>
<text text-anchor="middle" x="505" y="-522.3" font-family="Times New Roman,serif" font-size="14.00">start</text>
</g>
<!-- s0 -->
<g id="node4" class="node">
<title>s0</title>
<ellipse fill="none" stroke="black" cx="505" cy="-453" rx="27" ry="18"/>
<text text-anchor="middle" x="505" y="-449.3" font-family="Times New Roman,serif" font-size="14.00">s0</text>
</g>
<!-- start&#45;&gt;s0 -->
<g id="edge1" class="edge">
<title>start&#45;&gt;s0</title>
<path fill="none" stroke="black" d="M505,-507.81C505,-499.79 505,-490.05 505,-481.07"/>
<polygon fill="black" stroke="black" points="508.5,-481.03 505,-471.03 501.5,-481.03 508.5,-481.03"/>
</g>
<!-- s0&#45;&gt;s5 -->
<g id="edge5" class="edge">
<title>s0&#45;&gt;s5</title>
<path fill="none" stroke="black" d="M478.21,-450.35C373.8,-443.59 0,-415.95 0,-367 0,-367 0,-367 0,-104 0,-71.46 31.5,-47.55 57.02,-33.53"/>
<polygon fill="black" stroke="black" points="58.83,-36.53 66.08,-28.81 55.59,-30.32 58.83,-36.53"/>
<text text-anchor="middle" x="78.5" y="-231.8" font-family="Times New Roman,serif" font-size="14.00">НеПринадлежитАлфавиту</text>
</g>
<!-- s0&#45;&gt;s6 -->
<g id="edge6" class="edge">
<title>s0&#45;&gt;s6</title>
<path fill="none" stroke="black" d="M531.99,-450.31C636.26,-443.45 1007,-415.62 1007,-367 1007,-367 1007,-367 1007,-104 1007,-57.51 855.86,-32.61 783.17,-23.32"/>
<polygon fill="black" stroke="black" points="783.39,-19.82 773.04,-22.06 782.53,-26.76 783.39,-19.82"/>
<text text-anchor="middle" x="1048" y="-231.8" font-family="Times New Roman,serif" font-size="14.00">КонецЧтения</text>
</g>
<!-- s1 -->
<g id="node5" class="node">
<title>s1</title>
<ellipse fill="none" stroke="black" cx="505" cy="-366" rx="27" ry="18"/>
<text text-anchor="middle" x="505" y="-362.3" font-family="Times New Roman,serif" font-size="14.00">s1</text>
</g>
<!-- s0&#45;&gt;s1 -->
<g id="edge2" class="edge">
<title>s0&#45;&gt;s1</title>
<path fill="none" stroke="black" d="M505,-434.8C505,-423.16 505,-407.55 505,-394.24"/>
<polygon fill="black" stroke="black" points="508.5,-394.18 505,-384.18 501.5,-394.18 508.5,-394.18"/>
<text text-anchor="middle" x="575.5" y="-405.8" font-family="Times New Roman,serif" font-size="14.00">ПринадлежитАлфавиту</text>
</g>
<!-- s2 -->
<g id="node6" class="node">
<title>s2</title>
<ellipse fill="none" stroke="black" cx="281" cy="-279" rx="27" ry="18"/>
<text text-anchor="middle" x="281" y="-275.3" font-family="Times New Roman,serif" font-size="14.00">s2</text>
</g>
<!-- s0&#45;&gt;s2 -->
<g id="edge3" class="edge">
<title>s0&#45;&gt;s2</title>
<path fill="none" stroke="black" d="M478.97,-447.45C428.27,-437.03 317.2,-406.2 271,-330 266.63,-322.79 266.89,-314.02 268.95,-305.85"/>
<polygon fill="black" stroke="black" points="272.28,-306.93 272.16,-296.33 265.65,-304.69 272.28,-306.93"/>
<text text-anchor="middle" x="345" y="-362.3" font-family="Times New Roman,serif" font-size="14.00">Пробел</text>
</g>
<!-- s3 -->
<g id="node7" class="node">
<title>s3</title>
<ellipse fill="none" stroke="black" cx="631" cy="-192" rx="27" ry="18"/>
<text text-anchor="middle" x="631" y="-188.3" font-family="Times New Roman,serif" font-size="14.00">s3</text>
</g>
<!-- s0&#45;&gt;s3 -->
<g id="edge4" class="edge">
<title>s0&#45;&gt;s3</title>
<path fill="none" stroke="black" d="M532.15,-452.85C602.72,-453.4 791.8,-443.74 869,-330 922.68,-250.91 746.29,-211.67 667.28,-198.37"/>
<polygon fill="black" stroke="black" points="667.69,-194.89 657.26,-196.74 666.56,-201.8 667.69,-194.89"/>
<text text-anchor="middle" x="925.5" y="-318.8" font-family="Times New Roman,serif" font-size="14.00">ВозвратКаретки</text>
</g>
<!-- s1&#45;&gt;s5 -->
<g id="edge10" class="edge">
<title>s1&#45;&gt;s5</title>
<path fill="none" stroke="black" d="M478.53,-361.46C419.26,-353.47 280.33,-334.41 271,-330 209.83,-301.1 219.01,-257.23 158,-228 112.53,-206.22 78.7,-248.37 46,-210 4.99,-161.88 46.28,-82.85 71.92,-43.23"/>
<polygon fill="black" stroke="black" points="74.95,-44.99 77.58,-34.73 69.13,-41.11 74.95,-44.99"/>
<text text-anchor="middle" x="124.5" y="-188.3" font-family="Times New Roman,serif" font-size="14.00">НеПринадлежитАлфавиту</text>
</g>
<!-- s1&#45;&gt;s6 -->
<g id="edge11" class="edge">
<title>s1&#45;&gt;s6</title>
<path fill="none" stroke="black" d="M531.88,-364.23C613.84,-361.15 855,-346.44 855,-280 855,-280 855,-280 855,-104 855,-65.51 812.3,-41.98 780.11,-29.72"/>
<polygon fill="black" stroke="black" points="781.11,-26.36 770.51,-26.27 778.74,-32.95 781.11,-26.36"/>
<text text-anchor="middle" x="896" y="-188.3" font-family="Times New Roman,serif" font-size="14.00">КонецЧтения</text>
</g>
<!-- s1&#45;&gt;s1 -->
<g id="edge7" class="edge">
<title>s1&#45;&gt;s1</title>
<path fill="none" stroke="black" d="M529.53,-373.75C540.51,-374.49 550,-371.91 550,-366 550,-362.03 545.72,-359.56 539.57,-358.59"/>
<polygon fill="black" stroke="black" points="539.65,-355.09 529.53,-358.25 539.41,-362.09 539.65,-355.09"/>
<text text-anchor="middle" x="620.5" y="-362.3" font-family="Times New Roman,serif" font-size="14.00">ПринадлежитАлфавиту</text>
</g>
<!-- s1&#45;&gt;s2 -->
<g id="edge8" class="edge">
<title>s1&#45;&gt;s2</title>
<path fill="none" stroke="black" d="M477.99,-364.96C424.06,-364.25 306.08,-359.31 281,-330 275.6,-323.69 274.24,-315.12 274.65,-306.86"/>
<polygon fill="black" stroke="black" points="278.14,-307.11 275.94,-296.75 271.2,-306.22 278.14,-307.11"/>
<text text-anchor="middle" x="304" y="-318.8" font-family="Times New Roman,serif" font-size="14.00">Пробел</text>
</g>
<!-- s1&#45;&gt;s3 -->
<g id="edge9" class="edge">
<title>s1&#45;&gt;s3</title>
<path fill="none" stroke="black" d="M531.91,-364.51C574.98,-362.09 658.36,-350.35 696,-297 716.27,-268.27 683.34,-233.33 657.42,-212.15"/>
<polygon fill="black" stroke="black" points="659.34,-209.21 649.32,-205.78 655.02,-214.71 659.34,-209.21"/>
<text text-anchor="middle" x="751.5" y="-275.3" font-family="Times New Roman,serif" font-size="14.00">ВозвратКаретки</text>
</g>
<!-- s2&#45;&gt;s5 -->
<g id="edge15" class="edge">
<title>s2&#45;&gt;s5</title>
<path fill="none" stroke="black" d="M264.9,-264.27C258.28,-258.16 250.81,-250.62 245,-243 223.77,-215.16 235.7,-194.06 207,-174 163.88,-143.86 124.4,-195.81 90,-156 63.84,-125.74 71.62,-76.11 80.04,-45.63"/>
<polygon fill="black" stroke="black" points="83.49,-46.29 82.98,-35.7 76.78,-44.29 83.49,-46.29"/>
<text text-anchor="middle" x="168.5" y="-144.8" font-family="Times New Roman,serif" font-size="14.00">НеПринадлежитАлфавиту</text>
</g>
<!-- s2&#45;&gt;s6 -->
<g id="edge16" class="edge">
<title>s2&#45;&gt;s6</title>
<path fill="none" stroke="black" d="M276.1,-261.05C266.98,-225.94 251.07,-143.8 283,-87 296.6,-62.81 309.67,-62.76 336,-54 404.07,-31.36 618.01,-22.68 706.3,-20.01"/>
<polygon fill="black" stroke="black" points="706.54,-23.5 716.43,-19.71 706.33,-16.51 706.54,-23.5"/>
<text text-anchor="middle" x="307" y="-144.8" font-family="Times New Roman,serif" font-size="14.00">КонецЧтения</text>
</g>
<!-- s2&#45;&gt;s1 -->
<g id="edge12" class="edge">
<title>s2&#45;&gt;s1</title>
<path fill="none" stroke="black" d="M298.18,-293.01C316.72,-306.95 344.37,-327.46 350,-330 388.28,-347.31 435.87,-356.41 468.14,-360.94"/>
<polygon fill="black" stroke="black" points="468.09,-364.47 478.46,-362.31 469.01,-357.53 468.09,-364.47"/>
<text text-anchor="middle" x="420.5" y="-318.8" font-family="Times New Roman,serif" font-size="14.00">ПринадлежитАлфавиту</text>
</g>
<!-- s2&#45;&gt;s2 -->
<g id="edge13" class="edge">
<title>s2&#45;&gt;s2</title>
<path fill="none" stroke="black" d="M305.53,-286.75C316.51,-287.49 326,-284.91 326,-279 326,-275.03 321.72,-272.56 315.57,-271.59"/>
<polygon fill="black" stroke="black" points="315.65,-268.09 305.53,-271.25 315.41,-275.09 315.65,-268.09"/>
<text text-anchor="middle" x="349" y="-275.3" font-family="Times New Roman,serif" font-size="14.00">Пробел</text>
</g>
<!-- s2&#45;&gt;s3 -->
<g id="edge14" class="edge">
<title>s2&#45;&gt;s3</title>
<path fill="none" stroke="black" d="M287.86,-261.17C293.42,-249.82 302.41,-235.58 315,-228 338.46,-213.88 515.38,-200.62 593.79,-195.37"/>
<polygon fill="black" stroke="black" points="594.43,-198.84 604.17,-194.69 593.96,-191.85 594.43,-198.84"/>
<text text-anchor="middle" x="364.5" y="-231.8" font-family="Times New Roman,serif" font-size="14.00">ВозвратКаретки</text>
</g>
<!-- s3&#45;&gt;s5 -->
<g id="edge21" class="edge">
<title>s3&#45;&gt;s5</title>
<path fill="none" stroke="black" d="M604.65,-186.98C550.97,-178.4 425.4,-156.3 324,-123 248.18,-98.1 163.58,-57.22 119.49,-34.85"/>
<polygon fill="black" stroke="black" points="120.96,-31.67 110.46,-30.24 117.77,-37.9 120.96,-31.67"/>
<text text-anchor="middle" x="402.5" y="-101.3" font-family="Times New Roman,serif" font-size="14.00">НеПринадлежитАлфавиту</text>
</g>
<!-- s3&#45;&gt;s6 -->
<g id="edge22" class="edge">
<title>s3&#45;&gt;s6</title>
<path fill="none" stroke="black" d="M657.46,-187.93C678.21,-184.07 706.15,-175.4 722,-156 747.28,-125.06 749.47,-76.8 747.87,-46.58"/>
<polygon fill="black" stroke="black" points="751.34,-46.06 747.15,-36.34 744.36,-46.56 751.34,-46.06"/>
<text text-anchor="middle" x="787" y="-101.3" font-family="Times New Roman,serif" font-size="14.00">КонецЧтения</text>
</g>
<!-- s3&#45;&gt;s1 -->
<g id="edge17" class="edge">
<title>s3&#45;&gt;s1</title>
<path fill="none" stroke="black" d="M642.9,-208.45C649.6,-219.15 655.15,-233.18 647,-243 619.28,-276.4 585.03,-234.05 551,-261 547.7,-263.62 528.35,-308.98 515.82,-338.93"/>
<polygon fill="black" stroke="black" points="512.48,-337.83 511.86,-348.41 518.94,-340.53 512.48,-337.83"/>
<text text-anchor="middle" x="621.5" y="-275.3" font-family="Times New Roman,serif" font-size="14.00">ПринадлежитАлфавиту</text>
</g>
<!-- s3&#45;&gt;s2 -->
<g id="edge18" class="edge">
<title>s3&#45;&gt;s2</title>
<path fill="none" stroke="black" d="M604.04,-194.48C565.69,-197.33 493.77,-205.44 437,-228 425.66,-232.51 425.16,-238.05 414,-243 382.55,-256.95 344.37,-266.29 317,-271.78"/>
<polygon fill="black" stroke="black" points="316.23,-268.37 307.07,-273.7 317.56,-275.24 316.23,-268.37"/>
<text text-anchor="middle" x="460" y="-231.8" font-family="Times New Roman,serif" font-size="14.00">Пробел</text>
</g>
<!-- s3&#45;&gt;s3 -->
<g id="edge19" class="edge">
<title>s3&#45;&gt;s3</title>
<path fill="none" stroke="black" d="M655.53,-199.75C666.51,-200.49 676,-197.91 676,-192 676,-188.03 671.72,-185.56 665.57,-184.59"/>
<polygon fill="black" stroke="black" points="665.65,-181.09 655.53,-184.25 665.41,-188.09 665.65,-181.09"/>
<text text-anchor="middle" x="725.5" y="-188.3" font-family="Times New Roman,serif" font-size="14.00">ВозвратКаретки</text>
</g>
<!-- s4 -->
<g id="node8" class="node">
<title>s4</title>
<ellipse fill="none" stroke="black" cx="517" cy="-105" rx="27" ry="18"/>
<text text-anchor="middle" x="517" y="-101.3" font-family="Times New Roman,serif" font-size="14.00">s4</text>
</g>
<!-- s3&#45;&gt;s4 -->
<g id="edge20" class="edge">
<title>s3&#45;&gt;s4</title>
<path fill="none" stroke="black" d="M603.88,-191.64C575.78,-190.65 533.09,-184.19 512,-156 506.95,-149.25 506.42,-140.46 507.73,-132.14"/>
<polygon fill="black" stroke="black" points="511.14,-132.94 510.05,-122.4 504.33,-131.32 511.14,-132.94"/>
<text text-anchor="middle" x="560.5" y="-144.8" font-family="Times New Roman,serif" font-size="14.00">ПереводСтроки</text>
</g>
<!-- s4&#45;&gt;s5 -->
<g id="edge26" class="edge">
<title>s4&#45;&gt;s5</title>
<path fill="none" stroke="black" d="M495.19,-93.92C489.08,-91.38 482.36,-88.85 476,-87 351.1,-50.61 197.52,-30.7 127.3,-22.91"/>
<polygon fill="black" stroke="black" points="127.49,-19.41 117.17,-21.81 126.73,-26.37 127.49,-19.41"/>
<text text-anchor="middle" x="482.5" y="-57.8" font-family="Times New Roman,serif" font-size="14.00">НеПринадлежитАлфавиту</text>
</g>
<!-- s4&#45;&gt;s6 -->
<g id="edge27" class="edge">
<title>s4&#45;&gt;s6</title>
<path fill="none" stroke="black" d="M539.86,-95.24C566.15,-85.19 610.64,-68.26 649,-54 669.58,-46.35 692.7,-37.92 711.09,-31.25"/>
<polygon fill="black" stroke="black" points="712.3,-34.53 720.51,-27.84 709.91,-27.95 712.3,-34.53"/>
<text text-anchor="middle" x="690" y="-57.8" font-family="Times New Roman,serif" font-size="14.00">КонецЧтения</text>
</g>
<!-- s4&#45;&gt;s1 -->
<g id="edge23" class="edge">
<title>s4&#45;&gt;s1</title>
<path fill="none" stroke="black" d="M509.01,-122.35C506.59,-128.11 504.25,-134.71 503,-141 489.14,-210.83 496.12,-295.34 501.23,-337.82"/>
<polygon fill="black" stroke="black" points="497.78,-338.44 502.51,-347.92 504.72,-337.56 497.78,-338.44"/>
<text text-anchor="middle" x="565.5" y="-231.8" font-family="Times New Roman,serif" font-size="14.00">ПринадлежитАлфавиту</text>
</g>
<!-- s4&#45;&gt;s2 -->
<g id="edge24" class="edge">
<title>s4&#45;&gt;s2</title>
<path fill="none" stroke="black" d="M494.89,-115.48C444.41,-137.54 323,-193.06 296,-228 290.86,-234.66 287.47,-243.06 285.25,-251.06"/>
<polygon fill="black" stroke="black" points="281.83,-250.3 283,-260.83 288.65,-251.87 281.83,-250.3"/>
<text text-anchor="middle" x="395" y="-188.3" font-family="Times New Roman,serif" font-size="14.00">Пробел</text>
</g>
<!-- s4&#45;&gt;s3 -->
<g id="edge25" class="edge">
<title>s4&#45;&gt;s3</title>
<path fill="none" stroke="black" d="M542.93,-110.22C563.16,-114.72 590.79,-123.7 609,-141 615.62,-147.29 620.37,-155.93 623.73,-164.25"/>
<polygon fill="black" stroke="black" points="620.44,-165.44 627.05,-173.72 627.04,-163.13 620.44,-165.44"/>
<text text-anchor="middle" x="668.5" y="-144.8" font-family="Times New Roman,serif" font-size="14.00">ВозвратКаретки</text>
</g>
</g>
</svg>
